<?xml version="1.0" encoding="utf-8"?>
<!-- Generator: Adobe Illustrator 17.0.0, SVG Export Plug-In . SVG Version: 6.00 Build 0)  -->
<!DOCTYPE svg PUBLIC "-//W3C//DTD SVG 1.1//EN" "http://www.w3.org/Graphics/SVG/1.1/DTD/svg11.dtd">
<svg version="1.1" id="Layer_1" xmlns="http://www.w3.org/2000/svg" xmlns:xlink="http://www.w3.org/1999/xlink" x="0px" y="0px"
	 width="841.89px" height="595.28px" viewBox="0 0 841.89 595.28" enable-background="new 0 0 841.89 595.28" xml:space="preserve">
<g>
	<g>
		<g>
			<path fill="#C5DED7" d="M285.654,284.111c0-7.478-6.051-13.53-13.53-13.53c-7.478,0-13.53,6.051-13.53,13.53
				c0,35.527,39.187,84.306,43.653,89.763c2.683,3.251,6.566,4.941,10.477,4.941c3.012,0,6.051-1.005,8.574-3.066
				c5.774-4.744,6.606-13.264,1.876-19.052C308.67,339.021,285.654,303.691,285.654,284.111z"/>
			<path fill="#C5DED7" d="M569.765,270.582c-7.478,0-13.529,6.051-13.529,13.53c0,19.514-23.016,54.883-37.522,72.601
				c-4.73,5.774-3.885,14.296,1.89,19.038c2.51,2.061,5.549,3.066,8.574,3.066c3.91,0,7.781-1.691,10.464-4.941
				c4.466-5.456,43.653-54.235,43.653-89.763C583.295,276.633,577.244,270.582,569.765,270.582z"/>
			<path fill="#C5DED7" d="M420.946,270.582c-7.478,0-13.53,6.051-13.53,13.53v81.175c0,7.478,6.051,13.53,13.53,13.53
				c7.478,0,13.53-6.051,13.53-13.53v-81.175C434.474,276.633,428.423,270.582,420.946,270.582z"/>
			<path fill="#C5DED7" d="M569.765,54.117c-8.199,0-16.766,1.084-25.664,2.737C514.304,22.119,470.195,0,420.946,0
				s-93.36,22.119-123.156,56.853c-8.899-1.651-17.466-2.737-25.664-2.737c-82.061,0.001-148.821,66.761-148.821,148.821
				c0,56.23,31.709,107.347,81.492,132.622l-0.264,204.456c-0.013,14.757,5.72,28.63,16.145,39.068
				c10.437,10.451,24.297,16.198,39.055,16.198h322.479c30.44,0,55.2-24.76,55.2-55.2V335.36
				c49.598-25.34,81.175-76.379,81.175-132.424C718.585,120.877,651.825,54.117,569.765,54.117z M610.353,540.081
				c0,15.511-12.63,28.142-28.142,28.142H259.732c-7.518,0-14.586-2.934-19.911-8.257c-5.312-5.325-8.244-12.393-8.232-19.923
				l0.071-52.996h378.692V540.081z M618.729,314.3c-0.714,0.29-1.388,0.634-2.022,1.044c-1.705,1.057-3.105,2.458-4.149,4.069
				c-1.057,1.598-1.771,3.449-2.061,5.43c-0.119,0.753-0.159,1.507-0.146,2.273v132.873H231.695l0.174-132.689
				c0.013-0.739-0.027-1.493-0.132-2.22c-0.29-2.048-1.044-3.951-2.141-5.602c-1.031-1.546-2.378-2.893-4.017-3.924
				c-0.673-0.422-1.388-0.793-2.127-1.097c-44.405-19.418-73.089-63.151-73.089-111.52c0-67.144,54.619-121.762,121.762-121.762
				c2.624,0,5.394,0.317,8.112,0.531c-13.688,23.789-21.642,51.28-21.642,80.643c0,7.478,6.051,13.53,13.53,13.53
				c7.478,0,13.53-6.051,13.53-13.53c0-74.596,60.696-135.291,135.291-135.291s135.29,60.696,135.29,135.291
				c0,7.478,6.051,13.53,13.529,13.53s13.53-6.051,13.53-13.53c0-29.364-7.954-56.853-21.642-80.643
				c2.718-0.214,5.488-0.531,8.112-0.531c67.144,0,121.762,54.619,121.762,121.762C691.527,251.134,662.963,294.812,618.729,314.3z"
				/>
		</g>
	</g>
</g>
</svg>
