<?xml version="1.0" encoding="utf-8"?>
<!-- Generator: Adobe Illustrator 17.0.0, SVG Export Plug-In . SVG Version: 6.00 Build 0)  -->
<!DOCTYPE svg PUBLIC "-//W3C//DTD SVG 1.1//EN" "http://www.w3.org/Graphics/SVG/1.1/DTD/svg11.dtd">
<svg version="1.1" id="Capa_1" xmlns="http://www.w3.org/2000/svg" xmlns:xlink="http://www.w3.org/1999/xlink" x="0px" y="0px"
	 width="841.89px" height="595.28px" viewBox="0 0 841.89 595.28" enable-background="new 0 0 841.89 595.28" xml:space="preserve">
<g>
	<g>
		<g>
			<circle id="SVGID_1_" fill="#F2F4F4" cx="420.945" cy="297.64" r="297.64"/>
		</g>
		<g>
			<g>
				<g>
					<defs>
						<circle id="SVGID_2_" cx="420.945" cy="297.64" r="297.64"/>
					</defs>
					<clipPath id="SVGID_3_">
						<use xlink:href="#SVGID_2_"  overflow="visible"/>
					</clipPath>
					<g clip-path="url(#SVGID_3_)">
						<polygon fill="#421800" points="596.5,309.305 596.5,585.867 246.064,579.904 246.064,303.341 						"/>
						<path fill="#F0D0B4" d="M553.398,184.382v81.549c0,1.43-0.035,2.863-0.063,4.293c-0.035,1.171-0.066,2.31-0.133,3.48
							c-0.032,1.041-0.095,2.082-0.193,3.123c-0.032,0.747-0.095,1.497-0.161,2.246c-0.035,0.456-0.063,0.876-0.13,1.332
							c-0.063,0.813-0.133,1.658-0.263,2.471c-0.13,1.563-0.326,3.091-0.554,4.651c-0.032,0.392-0.095,0.781-0.161,1.171
							c-0.098,0.781-0.228,1.563-0.358,2.341v0.098c-0.193,1.136-0.389,2.243-0.589,3.382c-0.291,1.563-0.585,3.123-0.908,4.651
							c-0.035,0.066-0.035,0.13-0.063,0.196c-0.035,0.228-0.066,0.456-0.133,0.683c-0.032,0.066-0.032,0.13-0.063,0.196
							c-0.161,0.848-0.354,1.658-0.554,2.471c-0.063,0.358-0.13,0.718-0.259,1.073c-0.095,0.585-0.259,1.171-0.389,1.756
							c-0.098,0.326-0.164,0.683-0.294,1.009c-0.063,0.294-0.161,0.585-0.228,0.848c-0.683,2.667-1.462,5.271-2.278,7.872
							c-0.389,1.237-0.778,2.439-1.202,3.676c-0.035,0.13-0.098,0.259-0.13,0.389c-0.392,1.107-0.781,2.212-1.171,3.319
							c-0.13,0.326-0.259,0.652-0.392,1.009c-0.389,1.041-0.778,2.082-1.202,3.123c-0.487,1.269-1.009,2.506-1.528,3.743
							c-0.456,1.107-0.943,2.212-1.43,3.316c-0.066,0.196-0.164,0.358-0.228,0.554c-0.554,1.171-1.073,2.341-1.626,3.48
							c-0.554,1.202-1.139,2.408-1.759,3.61c-1.171,2.376-2.436,4.749-3.708,7.059l-1.756,3.123
							c-5.012,8.618-10.574,16.721-16.623,24.201c-0.816,1.076-1.658,2.117-2.541,3.123c-1.202,1.465-2.439,2.895-3.673,4.293
							c-1.041,1.171-2.117,2.373-3.224,3.512c-0.032,0.066-0.066,0.098-0.13,0.161c-3.12,3.354-6.309,6.54-9.561,9.533
							c-0.652,0.652-1.335,1.237-2.019,1.854c-1.107,1.009-2.212,1.987-3.351,2.93c-0.876,0.781-1.788,1.528-2.699,2.278
							c-2.341,1.917-4.683,3.771-7.056,5.496c-0.978,0.747-1.987,1.465-2.993,2.148c-1.626,1.171-3.284,2.278-4.945,3.351
							c-0.911,0.617-1.854,1.205-2.8,1.759c-3.319,2.05-6.666,3.936-9.985,5.562c-0.813,0.424-1.626,0.813-2.439,1.205
							c-0.816,0.389-1.658,0.778-2.541,1.171c-1.073,0.487-2.145,0.943-3.221,1.367c-0.424,0.196-0.848,0.358-1.266,0.487
							c-1.269,0.519-2.569,1.006-3.841,1.43c-1.595,0.589-3.221,1.076-4.812,1.528c-1.107,0.326-2.243,0.617-3.351,0.876
							c-0.066,0.035-0.133,0.066-0.228,0.066c-1.107,0.259-2.212,0.522-3.319,0.718c-0.294,0.066-0.585,0.13-0.876,0.161
							c-0.911,0.165-1.822,0.329-2.734,0.424c-1.3,0.199-2.601,0.358-3.901,0.424c-0.452,0.063-0.876,0.098-1.335,0.098
							c-1.041,0.063-2.047,0.095-3.056,0.095h-0.13c-1.009,0-2.019-0.032-3.028-0.095c-0.389,0-0.778-0.035-1.168-0.098
							c-0.911-0.032-1.857-0.13-2.832-0.259c-0.199,0-0.424-0.035-0.617-0.063c-1.205-0.165-2.411-0.358-3.645-0.589
							c-1.041-0.161-2.079-0.389-3.154-0.649c-5.562-1.269-11.286-3.189-17.076-5.758c-4.945-2.177-9.954-4.812-14.93-7.869
							c-2.506-1.528-5.012-3.158-7.483-4.882c-1.237-0.876-2.471-1.756-3.708-2.667c-3.873-2.832-7.71-5.92-11.485-9.239
							c-1.038-0.943-2.079-1.889-3.12-2.86c-1.041-0.946-2.082-1.92-3.091-2.863c-2.408-2.306-4.749-4.683-6.995-7.188
							c-0.165-0.13-0.294-0.291-0.424-0.421c-0.943-1.009-1.889-2.053-2.829-3.123c-2.601-2.93-5.138-5.954-7.546-9.109
							c-0.946-1.139-1.822-2.306-2.702-3.483c-3.287-4.357-6.407-8.91-9.337-13.63c-0.778-1.269-1.56-2.569-2.306-3.838
							c-0.911-1.528-1.788-3.091-2.667-4.651c-3.252-5.856-6.249-11.937-8.849-18.218c-0.389-0.911-0.781-1.822-1.107-2.734
							c-0.522-1.171-0.978-2.376-1.398-3.544c-0.649-1.727-1.266-3.449-1.854-5.173c-0.585-1.724-1.136-3.48-1.69-5.236
							c-0.522-1.693-1.009-3.382-1.465-5.107c-0.522-1.822-1.009-3.676-1.43-5.562c-0.035-0.196-0.098-0.392-0.133-0.585
							c-0.617-2.601-1.167-5.236-1.655-7.903c-0.652-3.512-1.171-7.09-1.563-10.7c-0.161-1.139-0.259-2.278-0.358-3.417
							c-0.13-1.202-0.225-2.373-0.291-3.578c-0.165-2.18-0.263-4.392-0.329-6.603c-0.032-1.43-0.066-2.863-0.066-4.293V184.38
							c0-70.685,55.4-128.457,125.17-132.232c0.133-0.035,0.228-0.035,0.358-0.035c0.911-0.032,1.822-0.066,2.734-0.098
							c1.367-0.032,2.699-0.066,4.066-0.066h0.13c1.395,0,2.797,0.032,4.195,0.066c1.073,0.032,2.148,0.066,3.221,0.133h0.098
							c7.448,0.421,14.769,1.462,21.825,3.056c8.622,1.952,16.917,4.749,24.786,8.296c10.738,4.812,20.724,10.995,29.703,18.379
							c7.546,6.182,14.412,13.143,20.394,20.818c17.436,22.217,27.94,50.129,28.168,80.508
							C553.398,183.601,553.398,183.99,553.398,184.382z"/>
						<path fill="#F0D0B4" d="M593.507,635.136v0.035H248.405v-0.035c0-19.29,3.154-37.897,9.042-55.232
							c0.066-0.164,0.098-0.329,0.165-0.487c1.073-3.154,2.243-6.277,3.512-9.368v-0.035c1.237-3.091,2.601-6.116,4.031-9.109
							c5.695-12.004,12.785-23.226,21.015-33.506c2.082-2.569,4.198-5.075,6.378-7.479c1.073-1.237,2.212-2.439,3.351-3.642
							c1.139-1.171,2.278-2.341,3.449-3.512c5.825-5.825,12.067-11.156,18.642-16.069c3.284-2.439,6.603-4.717,10.052-6.929
							c0.456-0.291,0.911-0.585,1.367-0.845c1.269-0.816,2.537-1.595,3.841-2.341c1.756-1.041,3.544-2.05,5.334-3.028
							c0.066-0.063,0.13-0.063,0.13-0.063c1.398-0.747,2.765-1.56,4.132-2.408c4.066-2.439,7.973-5.138,11.678-8.131
							c15.712-12.488,27.877-29.276,34.806-48.534c2.019-5.66,3.61-11.545,4.683-17.594c1.107-6.249,1.693-12.687,1.693-19.259
							l25.143,0.13h0.421l25.438,0.13c0,6.442,0.554,12.75,1.629,18.901c1.041,6.049,2.601,11.906,4.584,17.534
							c6.831,19.319,18.964,36.173,34.676,48.727c2.341,1.917,4.717,3.673,7.22,5.334c0.263,0.199,0.487,0.358,0.75,0.522
							c1.171,0.781,2.341,1.56,3.578,2.278c1.332,0.813,2.702,1.626,4.066,2.373c0.225,0.063,0.424,0.165,0.585,0.294
							c2.863,1.595,5.695,3.252,8.46,4.977c0.225,0.13,0.421,0.259,0.649,0.424c1.107,0.683,2.246,1.395,3.319,2.18
							c2.702,1.724,5.337,3.613,7.903,5.565c0,0.032,0.035,0.032,0.035,0.032h0.032c3.287,2.439,6.473,5.043,9.596,7.71
							s6.116,5.467,9.011,8.362c18.673,18.572,33.082,41.409,41.672,66.882C590.318,597.242,593.507,615.817,593.507,635.136z"/>
						<path fill="#C5DED7" d="M593.507,635.136H248.405c0-19.29,3.154-37.897,9.042-55.232c0.066-0.164,0.098-0.329,0.165-0.487
							c1.073-3.154,2.243-6.277,3.512-9.368v-0.035c1.237-3.091,2.601-6.116,4.031-9.109c5.695-12.004,12.785-23.226,21.015-33.506
							c2.082-2.569,4.198-5.075,6.378-7.479c1.073-1.237,2.212-2.439,3.351-3.642c1.139-1.171,2.278-2.341,3.449-3.512
							c5.825-5.825,12.067-11.156,18.642-16.069c3.284-2.439,6.603-4.717,10.052-6.929c0.456-0.291,0.911-0.585,1.367-0.845
							c1.269-0.816,2.537-1.595,3.841-2.341c1.756-1.076,3.544-2.082,5.334-3.059c0.066-0.066,0.13-0.035,0.13-0.035v-0.032
							c1.398-0.781,2.765-1.56,4.132-2.376c4.066-2.471,7.973-5.205,11.615-8.198c0.032,0.035,0.032,0.035,0.066,0.066
							c16.848,17.24,40.302,27.944,66.328,28.01h0.421c25.96-0.035,49.445-10.767,66.328-27.975l0.035-0.035
							c2.306,1.917,4.714,3.708,7.185,5.366c0.263,0.199,0.487,0.358,0.75,0.522c1.171,0.781,2.373,1.528,3.578,2.278
							c1.332,0.813,2.702,1.595,4.066,2.341c0.225,0.066,0.389,0.196,0.585,0.294c2.863,1.591,5.695,3.249,8.46,5.008
							c0.225,0.13,0.421,0.259,0.649,0.424c1.107,0.683,2.246,1.395,3.319,2.18c2.702,1.724,5.337,3.613,7.903,5.565h0.066
							c3.287,2.471,6.508,5.04,9.596,7.739c3.123,2.667,6.116,5.467,9.011,8.362c18.673,18.572,33.082,41.409,41.672,66.882
							C590.318,597.242,593.507,615.817,593.507,635.136z"/>
						<path fill="#421800" d="M597.25,539.706c-0.228,0.098-0.487,0.199-0.75,0.228c-17.107,4.455-84.574-76.845-85.257-162.07
							c-0.032-6.866,0.326-13.763,1.205-20.689c2.278-18.379,11.127-36.043,18.477-53.837c5.79-14.086,10.7-28.203,10.7-42.776
							c0-78.069-22.638-52.631-85.776-94.759c-15.256-10.15-26.089-18.477-34.581-25.245
							c-23.451-18.607-29.405-25.273-61.576-25.273c-40.925,0-57.187,71.074-61.838,101.457
							c-5.008,32.693-5.075,85.681,15.323,136.133c15.804,39.093,15.807,77.42-15.323,120
							c-11.678,15.974-29.57,69.938-51.787,87.339c-6.926,5.432-14.247,7.321-21.954,3.382
							c-60.702-31.063-24.172-130.767-5.954-193.19c19.616-67.173,25.536-135.256,39.783-203.081
							C274.008,90.958,339.39,44.408,365.805,63.277c8.815-15.81,31.879-21.73,55.46-21.73c17.275,0,34.872,3.221,47.363,8.068
							c96.448,37.442,98.078,126.831,103.216,164.01c4.23,30.709,19.354,59.399,24.656,89.715v0.098
							c1.139,6.375,1.822,12.88,1.857,19.452c0.225,35.489-3.743,59.497,23.226,89.064
							C642.041,434.368,626.396,526.924,597.25,539.706z"/>
						<g>
							<path fill="#F2F4F4" d="M421.265,500.955l-0.095,0.165l-0.035,0.063c-9.172,14.247-24.362,21.663-39.685,21.663
								c-12.459,0-24.982-4.91-34.382-14.994l-17.664-18.93c2.993-1.92,6.049-3.711,9.172-5.401c0.066-0.066,0.13-0.035,0.13-0.035
								v-0.032c1.398-0.781,2.765-1.56,4.132-2.376c4.066-2.471,7.973-5.205,11.615-8.198c0.032,0.035,0.032,0.035,0.066,0.066
								c16.848,17.24,40.302,27.944,66.328,28.01h0.418V500.955z"/>
							<path fill="#F2F4F4" d="M512.9,489.179l-17.401,18.67c-9.403,10.086-21.926,14.994-34.417,14.994
								c-15.288,0-30.513-7.416-39.653-21.663l-0.032-0.063l-0.133-0.165c25.96-0.035,49.445-10.767,66.328-27.975l0.035-0.035
								c2.306,1.917,4.714,3.708,7.185,5.366c0.263,0.199,0.487,0.358,0.75,0.522c1.171,0.781,2.373,1.528,3.578,2.278
								c1.332,0.813,2.702,1.595,4.066,2.341c0.225,0.066,0.389,0.196,0.585,0.294c2.863,1.591,5.695,3.249,8.46,5.008
								C512.476,488.885,512.669,489.014,512.9,489.179z"/>
						</g>
					</g>
				</g>
			</g>
		</g>
	</g>
</g>
<path id="bezier12" fill="#1A1718" fill-opacity="0.38" d="M369.265,249.311c0,9.33-7.42-11.99-16.57-11.99
	c-9.15,0-16.57,21.32-16.57,11.99c0-9.31,7.42-16.87,16.57-16.87C361.845,232.441,369.265,240.001,369.265,249.311L369.265,249.311z
	"/>
<path id="bezier13" fill="#1A1718" fill-opacity="0.38" d="M496.465,249.311c0,9.33-7.42-11.99-16.57-11.99
	c-9.15,0-16.56,21.32-16.56,11.99c0-9.31,7.41-16.87,16.56-16.87C489.045,232.441,496.465,240.001,496.465,249.311L496.465,249.311z
	"/>
<path id="bezier14" fill="#1A1718" fill-opacity="0.3" d="M478.295,220.361c11.85,0,21.55,8.15,22.38,18.49
	c0.04-0.47,0.07-0.95,0.07-1.43c0-11.01-10.05-19.93-22.45-19.93c-12.39,0-22.45,8.92-22.45,19.93c0,0.48,0.03,0.96,0.07,1.43
	C456.745,228.521,466.445,220.361,478.295,220.361L478.295,220.361z"/>
<path id="bezier15" fill="#1A1718" fill-opacity="0.3" d="M352.155,220.361c11.86,0,21.56,8.15,22.39,18.49
	c0.03-0.47,0.06-0.95,0.06-1.43c0-11.01-10.05-19.93-22.45-19.93c-12.39,0-22.44,8.92-22.44,19.93c0,0.48,0.02,0.96,0.06,1.43
	C330.605,228.521,340.305,220.361,352.155,220.361L352.155,220.361z"/>
<path fill="none" d="M554.055,275.541c0,77.872-63.128,141-141,141"/>
<path id="bezier19" fill="#1A1718" fill-opacity="0.3" d="M419.22,290.866c2.59,0,4.75,1.84,5.24,4.28c0.07-0.35,0.11-0.7,0.11-1.07
	c0-2.95-2.39-5.34-5.35-5.34c-2.95,0-5.34,2.39-5.34,5.34c0,0.37,0.04,0.72,0.11,1.07C414.48,292.706,416.64,290.866,419.22,290.866
	L419.22,290.866z"/>
<path id="bezier23" fill="#F6AC2C" fill-opacity="0.5" d="M472.415,333.791c0.3,0,0.54-0.24,0.54-0.53c0-0.3-0.24-0.54-0.54-0.54
	c-0.29,0-0.53,0.24-0.53,0.54C471.885,333.551,472.125,333.791,472.415,333.791z"/>
<path id="bezier27" fill="#F6AC2C" fill-opacity="0.5" d="M353.765,333.791c0.29,0,0.53-0.24,0.53-0.53c0-0.3-0.24-0.54-0.53-0.54
	c-0.3,0-0.54,0.24-0.54,0.54C353.225,333.551,353.465,333.791,353.765,333.791z"/>
<path id="bezier48" fill="#1A1718" fill-opacity="0.05" d="M416.22,300.346c24.21,0,43.83-2.15,43.83-4.81
	c0-2.65-19.62-4.8-43.83-4.8c-24.2,0-43.82,2.15-43.82,4.8C372.4,298.196,392.02,300.346,416.22,300.346z"/>
<path id="bezier52" fill="none" stroke="#A48677" stroke-width="3" d="M449.155,347.904c0,6.76-13.38,12.26-29.93,12.26
	c-16.55,0-29.93-5.51-29.93-12.26c0-6.81,13.38-12.31,29.93-12.31C435.775,335.594,449.155,341.094,449.155,347.904L449.155,347.904
	z"/>
<path id="bezier53" fill="#F0D0B4" d="M386.62,331.919v14.96h65.21v-14.96H386.62z"/>
</svg>
