<?xml version="1.0" encoding="utf-8"?>
<!-- Generator: Adobe Illustrator 17.0.0, SVG Export Plug-In . SVG Version: 6.00 Build 0)  -->
<!DOCTYPE svg PUBLIC "-//W3C//DTD SVG 1.1//EN" "http://www.w3.org/Graphics/SVG/1.1/DTD/svg11.dtd">
<svg version="1.1" id="Capa_1" xmlns="http://www.w3.org/2000/svg" xmlns:xlink="http://www.w3.org/1999/xlink" x="0px" y="0px"
	 width="841.89px" height="595.28px" viewBox="0 0 841.89 595.28" enable-background="new 0 0 841.89 595.28" xml:space="preserve">
<path fill="#C5DED7" d="M718.585,468.783v-27.284l-38.446-16.123c-2.48-7.441-4.961-13.641-8.682-21.082l16.123-38.446
	l-19.843-18.602l-38.444,16.122c-6.2-3.72-13.641-6.2-21.082-8.682l-16.123-38.444h-27.284l-16.123,38.446
	c-7.441,2.48-13.641,4.961-21.082,8.682l-37.205-16.123l-19.843,19.843l16.123,38.446c-3.721,6.2-6.2,13.641-8.682,21.082
	l-38.444,16.121v27.284l38.446,16.123c2.48,7.441,4.961,13.641,8.682,21.082l-16.123,37.205l19.843,19.843l38.446-16.123
	c6.2,3.721,13.641,6.2,21.082,8.682l16.121,38.444h27.284l16.123-38.446c7.441-2.48,13.641-4.961,21.082-8.682l38.446,16.123
	l19.843-19.843l-16.124-38.444c3.721-6.2,6.201-13.641,8.682-21.082L718.585,468.783z M549.922,483.665
	c-16.123-16.123-16.123-42.166,0-57.048c16.123-16.123,42.166-16.123,57.048,0c16.123,16.123,16.123,42.166,0,57.048
	C592.088,499.788,566.044,499.788,549.922,483.665z"/>
<path fill="#EF897B" d="M507.757,200.907l47.126-45.887l-16.123-40.925l-65.728-1.239c-7.441-9.921-16.123-18.603-24.803-26.044
	l1.241-65.728L408.544,2.481l-48.366,45.887c-12.402-1.241-23.564-1.241-35.964-1.241L278.325,0L237.4,16.123l-1.239,65.728
	c-9.921,7.441-18.602,16.123-26.044,24.803h-66.969l-17.362,40.925l45.887,48.366c-1.241,12.402-1.241,23.564-1.241,35.964
	l-47.127,44.647l16.123,40.926l65.728,1.241c7.441,9.921,16.123,18.603,24.803,26.043l-1.241,65.728l40.926,17.362l48.367-45.887
	c12.402,1.241,23.564,1.241,35.964,1.241l45.887,47.126l40.926-16.123l1.241-65.728c9.921-7.441,18.603-16.123,26.044-24.803
	l65.728,1.241l17.362-40.926l-45.887-48.366C507.757,225.71,508.996,213.309,507.757,200.907z M296.928,313.763
	c-53.326-23.564-78.131-86.812-54.567-140.14s86.812-78.13,140.138-54.567s78.13,86.812,54.567,140.138
	C413.504,312.522,350.255,337.325,296.928,313.763z"/>
<path fill="#ABDDCD" d="M531.319,408.014c-26.043,26.043-26.043,69.449,0,95.492c26.044,26.043,69.449,26.043,95.492,0
	c26.043-26.043,26.043-69.449,0-95.492C600.77,380.732,557.363,380.732,531.319,408.014z M606.97,483.665
	c-16.123,16.123-42.166,16.123-57.048,0c-16.123-16.123-16.123-42.166,0-57.048c16.123-16.123,42.166-16.123,57.048,0
	C623.093,442.74,623.093,468.783,606.97,483.665z"/>
<path fill="#E87067" d="M460.63,269.117c29.764-66.969-1.241-145.1-68.21-174.864s-145.1,1.241-174.864,68.21
	s1.241,145.1,68.21,174.864C352.735,367.089,430.866,336.086,460.63,269.117z M241.12,173.623
	c23.564-53.326,86.812-78.13,140.14-54.567s78.131,86.812,54.567,140.138s-86.812,78.13-140.138,54.567
	C242.361,290.199,217.558,226.951,241.12,173.623z"/>
</svg>
